<mxfile host="Electron" modified="2024-03-27T10:03:19.032Z" agent="Mozilla/5.0 (Windows NT 10.0; Win64; x64) AppleWebKit/537.36 (KHTML, like Gecko) draw.io/22.0.3 Chrome/114.0.5735.289 Electron/25.8.4 Safari/537.36" etag="vlOjdrqYlNyX4WAp2lNz" version="22.0.3" type="device">
  <diagram name="Seite-1" id="cd0WewnK4K1hUtr2LwWs">
    <mxGraphModel dx="1195" dy="703" grid="1" gridSize="10" guides="1" tooltips="1" connect="1" arrows="1" fold="1" page="1" pageScale="1" pageWidth="1169" pageHeight="827" math="0" shadow="0">
      <root>
        <mxCell id="0" />
        <mxCell id="1" parent="0" />
        <mxCell id="zitW0nt8DYXf4yXHIFWG-9" value="" style="rounded=0;whiteSpace=wrap;html=1;" vertex="1" parent="1">
          <mxGeometry x="260" y="200" width="40" height="60" as="geometry" />
        </mxCell>
        <mxCell id="zitW0nt8DYXf4yXHIFWG-10" value="2" style="rounded=0;whiteSpace=wrap;html=1;" vertex="1" parent="1">
          <mxGeometry x="300" y="200" width="60" height="60" as="geometry" />
        </mxCell>
        <mxCell id="zitW0nt8DYXf4yXHIFWG-31" style="edgeStyle=orthogonalEdgeStyle;rounded=0;orthogonalLoop=1;jettySize=auto;html=1;exitX=1;exitY=0.25;exitDx=0;exitDy=0;entryX=0;entryY=0.25;entryDx=0;entryDy=0;" edge="1" parent="1" source="zitW0nt8DYXf4yXHIFWG-12" target="zitW0nt8DYXf4yXHIFWG-14">
          <mxGeometry relative="1" as="geometry" />
        </mxCell>
        <mxCell id="zitW0nt8DYXf4yXHIFWG-12" value="" style="rounded=0;whiteSpace=wrap;html=1;" vertex="1" parent="1">
          <mxGeometry x="360" y="200" width="40" height="60" as="geometry" />
        </mxCell>
        <mxCell id="zitW0nt8DYXf4yXHIFWG-13" value="&lt;b&gt;&lt;font style=&quot;font-size: 18px;&quot;&gt;Liste als doppelt verkettete Liste der Elemente { 2, 3, 5, 7, 11 } &lt;font color=&quot;#ff0000&quot;&gt;-&amp;gt; LinkedList&lt;/font&gt;&lt;/font&gt;&lt;/b&gt;" style="text;html=1;strokeColor=none;fillColor=none;align=center;verticalAlign=middle;whiteSpace=wrap;rounded=0;" vertex="1" parent="1">
          <mxGeometry x="170" y="100" width="690" height="30" as="geometry" />
        </mxCell>
        <mxCell id="zitW0nt8DYXf4yXHIFWG-30" style="edgeStyle=orthogonalEdgeStyle;rounded=0;orthogonalLoop=1;jettySize=auto;html=1;exitX=0;exitY=0.75;exitDx=0;exitDy=0;entryX=1;entryY=0.75;entryDx=0;entryDy=0;" edge="1" parent="1" source="zitW0nt8DYXf4yXHIFWG-14" target="zitW0nt8DYXf4yXHIFWG-12">
          <mxGeometry relative="1" as="geometry" />
        </mxCell>
        <mxCell id="zitW0nt8DYXf4yXHIFWG-14" value="" style="rounded=0;whiteSpace=wrap;html=1;" vertex="1" parent="1">
          <mxGeometry x="470" y="200" width="40" height="60" as="geometry" />
        </mxCell>
        <mxCell id="zitW0nt8DYXf4yXHIFWG-15" value="3" style="rounded=0;whiteSpace=wrap;html=1;" vertex="1" parent="1">
          <mxGeometry x="510" y="200" width="60" height="60" as="geometry" />
        </mxCell>
        <mxCell id="zitW0nt8DYXf4yXHIFWG-27" style="edgeStyle=orthogonalEdgeStyle;rounded=0;orthogonalLoop=1;jettySize=auto;html=1;entryX=0;entryY=0.75;entryDx=0;entryDy=0;exitX=1;exitY=0.75;exitDx=0;exitDy=0;" edge="1" parent="1" source="zitW0nt8DYXf4yXHIFWG-16" target="zitW0nt8DYXf4yXHIFWG-17">
          <mxGeometry relative="1" as="geometry" />
        </mxCell>
        <mxCell id="zitW0nt8DYXf4yXHIFWG-16" value="" style="rounded=0;whiteSpace=wrap;html=1;" vertex="1" parent="1">
          <mxGeometry x="570" y="200" width="40" height="60" as="geometry" />
        </mxCell>
        <mxCell id="zitW0nt8DYXf4yXHIFWG-32" style="edgeStyle=orthogonalEdgeStyle;rounded=0;orthogonalLoop=1;jettySize=auto;html=1;exitX=0;exitY=0.25;exitDx=0;exitDy=0;entryX=1;entryY=0.25;entryDx=0;entryDy=0;" edge="1" parent="1" source="zitW0nt8DYXf4yXHIFWG-17" target="zitW0nt8DYXf4yXHIFWG-16">
          <mxGeometry relative="1" as="geometry" />
        </mxCell>
        <mxCell id="zitW0nt8DYXf4yXHIFWG-17" value="" style="rounded=0;whiteSpace=wrap;html=1;" vertex="1" parent="1">
          <mxGeometry x="660" y="200" width="40" height="60" as="geometry" />
        </mxCell>
        <mxCell id="zitW0nt8DYXf4yXHIFWG-18" value="5" style="rounded=0;whiteSpace=wrap;html=1;" vertex="1" parent="1">
          <mxGeometry x="700" y="200" width="60" height="60" as="geometry" />
        </mxCell>
        <mxCell id="zitW0nt8DYXf4yXHIFWG-28" style="edgeStyle=orthogonalEdgeStyle;rounded=0;orthogonalLoop=1;jettySize=auto;html=1;entryX=1;entryY=0.25;entryDx=0;entryDy=0;exitX=1;exitY=0.75;exitDx=0;exitDy=0;" edge="1" parent="1" source="zitW0nt8DYXf4yXHIFWG-19" target="zitW0nt8DYXf4yXHIFWG-22">
          <mxGeometry relative="1" as="geometry">
            <Array as="points">
              <mxPoint x="840" y="245" />
              <mxPoint x="840" y="355" />
            </Array>
          </mxGeometry>
        </mxCell>
        <mxCell id="zitW0nt8DYXf4yXHIFWG-53" style="edgeStyle=orthogonalEdgeStyle;rounded=0;orthogonalLoop=1;jettySize=auto;html=1;opacity=40;dashed=1;" edge="1" parent="1" source="zitW0nt8DYXf4yXHIFWG-19" target="zitW0nt8DYXf4yXHIFWG-50">
          <mxGeometry relative="1" as="geometry" />
        </mxCell>
        <mxCell id="zitW0nt8DYXf4yXHIFWG-19" value="" style="rounded=0;whiteSpace=wrap;html=1;" vertex="1" parent="1">
          <mxGeometry x="760" y="200" width="40" height="60" as="geometry" />
        </mxCell>
        <mxCell id="zitW0nt8DYXf4yXHIFWG-29" style="edgeStyle=orthogonalEdgeStyle;rounded=0;orthogonalLoop=1;jettySize=auto;html=1;entryX=1;entryY=0.25;entryDx=0;entryDy=0;exitX=0;exitY=0.25;exitDx=0;exitDy=0;" edge="1" parent="1" source="zitW0nt8DYXf4yXHIFWG-20" target="zitW0nt8DYXf4yXHIFWG-25">
          <mxGeometry relative="1" as="geometry" />
        </mxCell>
        <mxCell id="zitW0nt8DYXf4yXHIFWG-20" value="" style="rounded=0;whiteSpace=wrap;html=1;" vertex="1" parent="1">
          <mxGeometry x="660" y="340" width="40" height="60" as="geometry" />
        </mxCell>
        <mxCell id="zitW0nt8DYXf4yXHIFWG-21" value="7" style="rounded=0;whiteSpace=wrap;html=1;" vertex="1" parent="1">
          <mxGeometry x="700" y="340" width="60" height="60" as="geometry" />
        </mxCell>
        <mxCell id="zitW0nt8DYXf4yXHIFWG-33" style="edgeStyle=orthogonalEdgeStyle;rounded=0;orthogonalLoop=1;jettySize=auto;html=1;exitX=1;exitY=0.75;exitDx=0;exitDy=0;entryX=1;entryY=0.25;entryDx=0;entryDy=0;" edge="1" parent="1" source="zitW0nt8DYXf4yXHIFWG-22" target="zitW0nt8DYXf4yXHIFWG-19">
          <mxGeometry relative="1" as="geometry">
            <Array as="points">
              <mxPoint x="860" y="385" />
              <mxPoint x="860" y="215" />
            </Array>
          </mxGeometry>
        </mxCell>
        <mxCell id="zitW0nt8DYXf4yXHIFWG-55" style="edgeStyle=orthogonalEdgeStyle;rounded=0;orthogonalLoop=1;jettySize=auto;html=1;exitX=1;exitY=0.75;exitDx=0;exitDy=0;entryX=0.5;entryY=1;entryDx=0;entryDy=0;opacity=40;dashed=1;" edge="1" parent="1" source="zitW0nt8DYXf4yXHIFWG-22" target="zitW0nt8DYXf4yXHIFWG-51">
          <mxGeometry relative="1" as="geometry" />
        </mxCell>
        <mxCell id="zitW0nt8DYXf4yXHIFWG-22" value="" style="rounded=0;whiteSpace=wrap;html=1;" vertex="1" parent="1">
          <mxGeometry x="760" y="340" width="40" height="60" as="geometry" />
        </mxCell>
        <mxCell id="zitW0nt8DYXf4yXHIFWG-23" value="" style="rounded=0;whiteSpace=wrap;html=1;" vertex="1" parent="1">
          <mxGeometry x="470" y="340" width="40" height="60" as="geometry" />
        </mxCell>
        <mxCell id="zitW0nt8DYXf4yXHIFWG-24" value="11" style="rounded=0;whiteSpace=wrap;html=1;" vertex="1" parent="1">
          <mxGeometry x="510" y="340" width="60" height="60" as="geometry" />
        </mxCell>
        <mxCell id="zitW0nt8DYXf4yXHIFWG-34" style="edgeStyle=orthogonalEdgeStyle;rounded=0;orthogonalLoop=1;jettySize=auto;html=1;exitX=1;exitY=0.75;exitDx=0;exitDy=0;entryX=0;entryY=0.75;entryDx=0;entryDy=0;" edge="1" parent="1" source="zitW0nt8DYXf4yXHIFWG-25" target="zitW0nt8DYXf4yXHIFWG-20">
          <mxGeometry relative="1" as="geometry" />
        </mxCell>
        <mxCell id="zitW0nt8DYXf4yXHIFWG-25" value="" style="rounded=0;whiteSpace=wrap;html=1;" vertex="1" parent="1">
          <mxGeometry x="570" y="340" width="40" height="60" as="geometry" />
        </mxCell>
        <mxCell id="zitW0nt8DYXf4yXHIFWG-35" value="Node" style="text;html=1;strokeColor=none;fillColor=none;align=center;verticalAlign=middle;whiteSpace=wrap;rounded=0;" vertex="1" parent="1">
          <mxGeometry x="300" y="170" width="60" height="30" as="geometry" />
        </mxCell>
        <mxCell id="zitW0nt8DYXf4yXHIFWG-36" value="Node" style="text;html=1;strokeColor=none;fillColor=none;align=center;verticalAlign=middle;whiteSpace=wrap;rounded=0;" vertex="1" parent="1">
          <mxGeometry x="510" y="170" width="60" height="30" as="geometry" />
        </mxCell>
        <mxCell id="zitW0nt8DYXf4yXHIFWG-37" value="Node" style="text;html=1;strokeColor=none;fillColor=none;align=center;verticalAlign=middle;whiteSpace=wrap;rounded=0;" vertex="1" parent="1">
          <mxGeometry x="700" y="170" width="60" height="30" as="geometry" />
        </mxCell>
        <mxCell id="zitW0nt8DYXf4yXHIFWG-38" value="Node" style="text;html=1;strokeColor=none;fillColor=none;align=center;verticalAlign=middle;whiteSpace=wrap;rounded=0;" vertex="1" parent="1">
          <mxGeometry x="700" y="310" width="60" height="30" as="geometry" />
        </mxCell>
        <mxCell id="zitW0nt8DYXf4yXHIFWG-39" value="Node" style="text;html=1;strokeColor=none;fillColor=none;align=center;verticalAlign=middle;whiteSpace=wrap;rounded=0;" vertex="1" parent="1">
          <mxGeometry x="510" y="310" width="60" height="30" as="geometry" />
        </mxCell>
        <mxCell id="zitW0nt8DYXf4yXHIFWG-41" value="" style="shape=table;startSize=0;container=1;collapsible=0;childLayout=tableLayout;" vertex="1" parent="1">
          <mxGeometry x="260" y="540" width="300" height="40" as="geometry" />
        </mxCell>
        <mxCell id="zitW0nt8DYXf4yXHIFWG-42" value="" style="shape=tableRow;horizontal=0;startSize=0;swimlaneHead=0;swimlaneBody=0;strokeColor=inherit;top=0;left=0;bottom=0;right=0;collapsible=0;dropTarget=0;fillColor=none;points=[[0,0.5],[1,0.5]];portConstraint=eastwest;" vertex="1" parent="zitW0nt8DYXf4yXHIFWG-41">
          <mxGeometry width="300" height="40" as="geometry" />
        </mxCell>
        <mxCell id="zitW0nt8DYXf4yXHIFWG-43" value="2" style="shape=partialRectangle;html=1;whiteSpace=wrap;connectable=0;strokeColor=inherit;overflow=hidden;fillColor=none;top=0;left=0;bottom=0;right=0;pointerEvents=1;" vertex="1" parent="zitW0nt8DYXf4yXHIFWG-42">
          <mxGeometry width="60" height="40" as="geometry">
            <mxRectangle width="60" height="40" as="alternateBounds" />
          </mxGeometry>
        </mxCell>
        <mxCell id="zitW0nt8DYXf4yXHIFWG-44" value="3" style="shape=partialRectangle;html=1;whiteSpace=wrap;connectable=0;strokeColor=inherit;overflow=hidden;fillColor=none;top=0;left=0;bottom=0;right=0;pointerEvents=1;" vertex="1" parent="zitW0nt8DYXf4yXHIFWG-42">
          <mxGeometry x="60" width="60" height="40" as="geometry">
            <mxRectangle width="60" height="40" as="alternateBounds" />
          </mxGeometry>
        </mxCell>
        <mxCell id="zitW0nt8DYXf4yXHIFWG-45" value="5" style="shape=partialRectangle;html=1;whiteSpace=wrap;connectable=0;strokeColor=inherit;overflow=hidden;fillColor=none;top=0;left=0;bottom=0;right=0;pointerEvents=1;" vertex="1" parent="zitW0nt8DYXf4yXHIFWG-42">
          <mxGeometry x="120" width="60" height="40" as="geometry">
            <mxRectangle width="60" height="40" as="alternateBounds" />
          </mxGeometry>
        </mxCell>
        <mxCell id="zitW0nt8DYXf4yXHIFWG-46" value="7" style="shape=partialRectangle;html=1;whiteSpace=wrap;connectable=0;strokeColor=inherit;overflow=hidden;fillColor=none;top=0;left=0;bottom=0;right=0;pointerEvents=1;" vertex="1" parent="zitW0nt8DYXf4yXHIFWG-42">
          <mxGeometry x="180" width="60" height="40" as="geometry">
            <mxRectangle width="60" height="40" as="alternateBounds" />
          </mxGeometry>
        </mxCell>
        <mxCell id="zitW0nt8DYXf4yXHIFWG-47" value="11" style="shape=partialRectangle;html=1;whiteSpace=wrap;connectable=0;strokeColor=inherit;overflow=hidden;fillColor=none;top=0;left=0;bottom=0;right=0;pointerEvents=1;" vertex="1" parent="zitW0nt8DYXf4yXHIFWG-42">
          <mxGeometry x="240" width="60" height="40" as="geometry">
            <mxRectangle width="60" height="40" as="alternateBounds" />
          </mxGeometry>
        </mxCell>
        <mxCell id="zitW0nt8DYXf4yXHIFWG-48" value="&lt;b&gt;&lt;font style=&quot;font-size: 18px;&quot;&gt;Liste mit intern verwaltetem Array. Elemente { 2, 3, 5, 7, 11 } &lt;font color=&quot;#ff0000&quot;&gt;-&amp;gt; ArrayList&lt;/font&gt;&lt;/font&gt;&lt;/b&gt;" style="text;html=1;strokeColor=none;fillColor=none;align=center;verticalAlign=middle;whiteSpace=wrap;rounded=0;" vertex="1" parent="1">
          <mxGeometry x="170" y="500" width="690" height="30" as="geometry" />
        </mxCell>
        <mxCell id="zitW0nt8DYXf4yXHIFWG-56" style="edgeStyle=orthogonalEdgeStyle;rounded=0;orthogonalLoop=1;jettySize=auto;html=1;exitX=0.5;exitY=0;exitDx=0;exitDy=0;entryX=0.5;entryY=1;entryDx=0;entryDy=0;dashed=1;opacity=40;" edge="1" parent="1" source="zitW0nt8DYXf4yXHIFWG-49" target="zitW0nt8DYXf4yXHIFWG-19">
          <mxGeometry relative="1" as="geometry">
            <Array as="points">
              <mxPoint x="920" y="270" />
              <mxPoint x="780" y="270" />
            </Array>
          </mxGeometry>
        </mxCell>
        <mxCell id="zitW0nt8DYXf4yXHIFWG-49" value="" style="rounded=0;whiteSpace=wrap;html=1;" vertex="1" parent="1">
          <mxGeometry x="900" y="280" width="40" height="60" as="geometry" />
        </mxCell>
        <mxCell id="zitW0nt8DYXf4yXHIFWG-54" style="edgeStyle=orthogonalEdgeStyle;rounded=0;orthogonalLoop=1;jettySize=auto;html=1;entryX=1;entryY=0.5;entryDx=0;entryDy=0;exitX=0.5;exitY=1;exitDx=0;exitDy=0;opacity=40;dashed=1;" edge="1" parent="1" source="zitW0nt8DYXf4yXHIFWG-49" target="zitW0nt8DYXf4yXHIFWG-22">
          <mxGeometry relative="1" as="geometry" />
        </mxCell>
        <mxCell id="zitW0nt8DYXf4yXHIFWG-50" value="23" style="rounded=0;whiteSpace=wrap;html=1;" vertex="1" parent="1">
          <mxGeometry x="940" y="280" width="60" height="60" as="geometry" />
        </mxCell>
        <mxCell id="zitW0nt8DYXf4yXHIFWG-51" value="" style="rounded=0;whiteSpace=wrap;html=1;" vertex="1" parent="1">
          <mxGeometry x="1000" y="280" width="40" height="60" as="geometry" />
        </mxCell>
        <mxCell id="zitW0nt8DYXf4yXHIFWG-52" value="Node" style="text;html=1;strokeColor=none;fillColor=none;align=center;verticalAlign=middle;whiteSpace=wrap;rounded=0;" vertex="1" parent="1">
          <mxGeometry x="940" y="250" width="60" height="30" as="geometry" />
        </mxCell>
        <mxCell id="zitW0nt8DYXf4yXHIFWG-57" value="Einfügen eines neuen Elements" style="text;html=1;strokeColor=none;fillColor=none;align=center;verticalAlign=middle;whiteSpace=wrap;rounded=0;opacity=40;" vertex="1" parent="1">
          <mxGeometry x="1000" y="240" width="100" height="30" as="geometry" />
        </mxCell>
        <mxCell id="zitW0nt8DYXf4yXHIFWG-58" value="Kann Speicherlücken effizient nutzen, da Elemente nicht direkt hintereinander im Speicher liegen müssen.&lt;br&gt;&lt;br&gt;Einfügen und Löschen ist sehr performant, da lediglich Referenzen angepasst werden müssen.&lt;br&gt;&lt;br&gt;Zugriff per Index ist etwas langsamer, da man sich von Element zu Element &quot;durchhangeln&quot; muss." style="rounded=0;whiteSpace=wrap;html=1;fillColor=#fff2cc;strokeColor=#d6b656;shadow=1;align=left;" vertex="1" parent="1">
          <mxGeometry x="210" y="295" width="230" height="175" as="geometry" />
        </mxCell>
        <mxCell id="zitW0nt8DYXf4yXHIFWG-59" value="Zugriff per Index ist sehr performant, da die Elemente direkt hintereinander im Speicher liegen.&lt;br&gt;&lt;br&gt;Einfügen und Löschen ist langsamer, da hier Daten verschoben werden müssen." style="rounded=0;whiteSpace=wrap;html=1;fillColor=#fff2cc;strokeColor=#d6b656;shadow=1;align=left;verticalAlign=top;" vertex="1" parent="1">
          <mxGeometry x="210" y="610" width="270" height="110" as="geometry" />
        </mxCell>
      </root>
    </mxGraphModel>
  </diagram>
</mxfile>
